<?xml version="1.0" encoding="utf-8"?>
<!-- Generator: Adobe Illustrator 20.1.0, SVG Export Plug-In . SVG Version: 6.00 Build 0)  -->
<svg version="1.1" id="Layer_1" xmlns="http://www.w3.org/2000/svg" xmlns:xlink="http://www.w3.org/1999/xlink" x="0px" y="0px"
	 width="216.9px" height="75px" viewBox="0 0 216.9 75" style="enable-background:new 0 0 216.9 75;" xml:space="preserve">
<g>
	<g>
		<path style="fill:#FFFFFF;" d="M93.1,35.4c-1,2.5-2,5.5-3.2,8.7c6.2-2.4,10.2-7.1,9.8-8.8C99.5,34,96.5,33.7,93.1,35.4z"/>
		<path style="fill:#FFFFFF;" d="M73.2,33.6c-1.6-0.5-5.4,5.3-7.2,10.2c-1.8,4.9-2.8,11.5-0.9,12.3c1.9,0.8,4.9-3.8,7-10
			C73.7,41.3,74.9,34.1,73.2,33.6z"/>
		<path style="fill:#FFFFFF;" d="M116.6,34.8c-2.3,6.2-4.5,13.2-6.5,20.1c10.1-5,12.9-15.1,11.8-18.4
			C121.3,35,119.3,33.9,116.6,34.8z"/>
		<path style="fill:#FFFFFF;" d="M11.3,12.2L0,75h138.8L150,12.2H11.3z M43.8,61.9c-3.4-1-4.5-1.5-4.5-4c0-2,0.7-9.3,1.2-13.8
			c-2.9,5.5-7.2,14.2-8.6,16.8c-0.7,1.4-1.3,1.4-2.9,1c-0.8-0.2-2-0.6-2.9-1.1c-0.9-0.5-1.2-1-1.2-2c0-5,2.2-19.7,4-29.3
			c0.2-1,0.6-1.5,1.3-1.5c1,0,3.1,0.7,4.1,1.4c0.8,0.6,1,1.3,0.8,2.8c-0.5,2.7-2.5,12.7-3.7,18.7c3.2-6.7,8.3-17,9.7-19.2
			c0.7-1.1,1.2-1.3,2.6-0.9c0.8,0.2,1.8,0.6,2.5,1.1c0.9,0.6,1,1.3,0.9,2.6c-0.2,1.4-1.3,10.7-2.2,17c3.2-8.2,8.7-20,10.2-22.8
			c0.7-1.2,1.2-1.4,2.5-0.8c0.9,0.4,2.1,1.2,2.7,2c0.7,0.9,0.6,1.9-0.1,3.3C56.8,40,50.1,53.6,47,60.8
			C46.3,62.3,45.6,62.4,43.8,61.9z M65.4,61.7c-1.7-0.2-3.7-0.8-5-1.8c-1-0.7-2.2-2.2-2.7-3.8c-2.3-7.5,2.3-20.8,9.6-26.9
			c1.5-1.3,3.9-1.9,5.6-1.6c2.2,0.3,4.5,1.3,5.7,2.5c1.4,1.4,2,3,2.1,5c0.4,7.1-2.6,18.6-8.5,24.4C70.1,61.5,67.9,62,65.4,61.7z
			 M100.6,58c0.8,0.9,0.6,1.5-0.2,2.1c-0.9,0.7-1.4,0.8-2.3,1.1c-1,0.3-2.3,0.4-3.7-1c-2-1.8-5-5.8-7-9.2c-1.1,3.3-2.2,6.6-3,9.7
			c-0.3,1.1-0.7,1.3-1.8,1c-1.1-0.3-2.1-0.7-2.8-1.2c-0.9-0.7-1-1.4-0.8-2.9c1-4.8,3.8-14,6.2-21.6c-0.4-0.8-0.9-1.8-1.3-2.6
			c-0.5-1.3-0.4-1.9,0.7-2.6c5.1-2.9,15-5.4,18.2-1.5c1.3,1.6,2.4,3.8,2.8,6.6c0.4,2.9-1,5.4-3,7.3c-2.1,2-5.1,4.1-8.5,5.8
			C95.8,51.8,98.6,55.6,100.6,58z M110.9,61.9c-1.4,0.5-2.5,0.5-3.7-0.4c-1.2-0.9-1.9-1.7-3-2.8c-1-1.1-1.6-1.8-0.8-4.5
			c1.5-5.4,3.7-13,5.7-19.2c-0.4-0.7-0.9-1.7-1.2-2.6c-0.5-1.3-0.5-1.9,0.7-2.6c5.1-2.9,16.4-4.8,19.7,4.4
			C131.2,42.4,125.6,56.4,110.9,61.9z"/>
	</g>
	<g>
		<path style="fill:#FEDD10;" d="M191.9,23.3c-0.9,2.5-2,5.5-3.1,8.7c6.5-2.4,10-6.9,9.6-9C198.3,21.9,195.3,21.8,191.9,23.3z"/>
		<path style="fill:#FEDD10;" d="M152.2,0l-11.2,62.8h64.7L216.9,0H152.2z M168.7,48.3c-1.7,1.2-3.3,1.4-5.4,1.3
			c-2-0.1-3.7-0.8-4.9-1.8c-1-0.7-1.9-1.9-2.4-3.5c-2-5.9,2.7-18,6.2-27.1c0.5-1.3,1.2-1.4,2.3-1c1.1,0.4,2.3,1,3.2,1.9
			c1.1,1,1.2,2.1,0.6,3.5c-2.9,7.4-8.2,21.4-5.3,22.4c3.6,1.2,9-18.4,11.3-27.1c0.4-1.3,1.1-1.5,2.3-1.2s2.6,1.2,3.5,1.9
			c1.1,0.8,1.1,1.3,0.7,2.5C177,34.3,173.7,44.9,168.7,48.3z M201.4,31c-3.1,3.5-9.5,6.9-15,8.6c-1,3.2-2,6.2-2.8,9.1
			c-0.4,1.1-0.7,1.4-1.8,1.1c-1-0.3-2.3-0.8-3.2-1.5c-0.9-0.7-1.1-1.4-0.7-2.9c1-4.8,3.8-14,6.1-21.6c-0.4-0.7-0.9-1.7-1.2-2.6
			c-0.5-1.3-0.4-1.9,0.7-2.6c5.1-2.9,15.1-5.4,18.2-1.5c1.3,1.6,2.4,3.6,2.8,6.6C204.9,26.6,203.3,28.9,201.4,31z"/>
	</g>
</g>
</svg>
