<?xml version="1.0" encoding="utf-8"?>
<!-- Generator: Adobe Illustrator 20.1.0, SVG Export Plug-In . SVG Version: 6.00 Build 0)  -->
<svg version="1.1" id="Layer_1" xmlns="http://www.w3.org/2000/svg" xmlns:xlink="http://www.w3.org/1999/xlink" x="0px" y="0px"
	 width="105.1px" height="146.2px" viewBox="0 0 105.1 146.2" style="enable-background:new 0 0 105.1 146.2;" xml:space="preserve"
	>
<g>
	<path style="fill:#2B282E;" d="M90.2,58.6c-2.9,0-5.3,2.4-5.3,5.3v9.8c0,18.2-14.8,33-33,33s-33-14.8-33-33v-9.8
		c0-2.9-2.4-5.3-5.3-5.3S8.4,61,8.4,63.9v9.8c0,22.2,16.7,40.6,38.3,43.2v9.2H31c-2.9,0-5.3,2.4-5.3,5.3s2.4,5.3,5.3,5.3h42
		c2.9,0,5.3-2.4,5.3-5.3s-2.4-5.3-5.3-5.3H57.3v-9.2c21.5-2.6,38.3-21,38.3-43.2v-9.8C95.5,61,93.2,58.6,90.2,58.6z"/>
	<path style="fill:#2B282E;" d="M52,98.8c13.9,0,25.2-11.3,25.2-25.2V33.9C77.1,20,65.8,8.7,52,8.7S26.8,20,26.8,33.9v39.8
		C26.8,87.5,38.1,98.8,52,98.8z"/>
</g>
</svg>
